<svg width="20" height="20" viewBox="0 0 20 20" fill="none" xmlns="http://www.w3.org/2000/svg">
<g clip-path="url(#clip0_193_8)">
<path d="M2.48047 0.0585938C1.87891 0.191406 1.42188 0.449219 0.953125 0.914062C0.558594 1.30859 0.34375 1.64844 0.164062 2.16797L0.0585938 2.48047V10V17.5195L0.164062 17.832C0.34375 18.3477 0.558594 18.6914 0.953125 19.0859C1.34766 19.4805 1.69141 19.6953 2.20703 19.875L2.51953 19.9805H7.08984H11.6602L11.9727 19.875C12.4883 19.6953 12.832 19.4805 13.2266 19.0859C13.625 18.6875 13.8398 18.3438 14.0117 17.832C14.1172 17.5234 14.1172 17.5 14.1328 16.3164C14.1445 15.1445 14.1445 15.1094 14.0625 14.9375C14.0078 14.8281 13.9141 14.7188 13.8164 14.6562C13.6797 14.5664 13.6172 14.5508 13.3594 14.5508C13.1016 14.5508 13.0391 14.5664 12.9023 14.6562C12.8086 14.7188 12.7109 14.8281 12.6602 14.9297C12.5859 15.0898 12.5781 15.168 12.5781 15.9414C12.5781 16.4023 12.5586 16.8984 12.5391 17.0508C12.4375 17.7617 11.9023 18.2969 11.1914 18.3984C10.8242 18.4492 3.35547 18.4492 2.98828 18.3984C2.27734 18.2969 1.74219 17.7617 1.64062 17.0508C1.58984 16.6758 1.58984 3.32422 1.64062 2.94922C1.74219 2.23828 2.27734 1.70312 2.98828 1.60156C3.35547 1.55078 10.8242 1.55078 11.1914 1.60156C11.9023 1.70312 12.4375 2.23828 12.5391 2.94922C12.5586 3.09766 12.5781 3.59766 12.5781 4.05859C12.5781 4.83203 12.5859 4.91016 12.6602 5.07031C12.7109 5.17188 12.8086 5.28125 12.9023 5.34375C13.0391 5.43359 13.1016 5.44922 13.3594 5.44922C13.6172 5.44922 13.6797 5.43359 13.8164 5.34375C13.9141 5.28125 14.0078 5.17188 14.0625 5.0625C14.1445 4.89062 14.1445 4.85547 14.1328 3.68359C14.1172 2.5 14.1172 2.47656 14.0117 2.16797C13.8398 1.65625 13.625 1.3125 13.2266 0.914062C12.832 0.519531 12.4883 0.304688 11.9727 0.125L11.6602 0.0195312L7.1875 0.0117188C3.58984 0.0078125 2.66797 0.015625 2.48047 0.0585938Z" fill="white"/>
<path d="M16.8164 6.74607C16.4336 6.94529 16.2695 7.37888 16.4258 7.7656C16.4648 7.85544 16.7383 8.16013 17.1602 8.58201L17.832 9.25779H13.0508H8.26562L8.09375 9.33982C7.99219 9.3906 7.88281 9.48826 7.82031 9.58201C7.73047 9.71873 7.71484 9.78123 7.71484 10.039C7.71484 10.2969 7.73047 10.3594 7.82031 10.4961C7.88281 10.5898 7.99219 10.6875 8.09375 10.7383L8.26562 10.8203H13.0508H17.832L17.1602 11.4922C16.7383 11.9179 16.4648 12.2226 16.4258 12.3125C16.3125 12.5898 16.375 12.9453 16.5742 13.1562C16.7969 13.3984 17.2383 13.4726 17.5312 13.3242C17.6094 13.2812 18.1328 12.7851 18.6953 12.2187C19.5938 11.3125 19.7305 11.1601 19.8477 10.9179L19.9805 10.6445V10.039V9.43357L19.8477 9.16013C19.7305 8.91794 19.5938 8.7656 18.6953 7.85935C18.1328 7.29294 17.6094 6.79685 17.5312 6.75388C17.3516 6.66013 16.9844 6.65623 16.8164 6.74607Z" fill="white"/>
</g>
<defs>
<clipPath id="clip0_193_8">
<rect width="20" height="20" fill="white"/>
</clipPath>
</defs>
</svg>
