<svg width="16" height="16" viewBox="0 0 16 16" fill="none" xmlns="http://www.w3.org/2000/svg">
<g clip-path="url(#clip0_223_6)">
<path d="M3.7187 0.921858C3.09058 1.03123 2.3312 1.35936 1.84058 1.73123C1.00933 2.35936 0.39058 3.33436 0.13433 4.40623C-0.00317026 4.99373 -0.0437953 5.88436 0.0437047 6.45311C0.27183 7.94061 1.15933 9.35311 2.88745 10.9781C3.52808 11.5812 3.97495 11.975 5.7937 13.5406C6.91245 14.5062 7.47496 14.9687 7.59371 15.025C7.83746 15.1437 8.16246 15.1437 8.40621 15.0281C8.64058 14.9125 11.9718 12.05 13.1 10.9906C14.8281 9.36873 15.7281 7.94061 15.9562 6.45311C16.0437 5.88436 16.0031 4.99373 15.8656 4.40623C15.6093 3.33436 14.9906 2.35936 14.1593 1.73123C13.6562 1.34998 12.9031 1.02811 12.25 0.921858C11.8968 0.862483 11.175 0.862483 10.825 0.921858C9.85621 1.09061 8.94683 1.62811 8.26246 2.44373C8.12808 2.60311 8.01246 2.73436 7.99996 2.73436C7.98746 2.73436 7.87183 2.60311 7.73746 2.44373C7.05308 1.62811 6.1437 1.09061 5.17495 0.921858C4.83745 0.865608 4.0562 0.865608 3.7187 0.921858ZM5.2812 1.93436C5.58433 2.02186 6.09058 2.27186 6.32808 2.44998C6.62183 2.67186 7.01558 3.08123 7.22808 3.38436C7.33433 3.53748 7.45933 3.71873 7.50621 3.78436C7.74058 4.11561 8.25933 4.11561 8.49371 3.78436C8.54058 3.71873 8.66558 3.53748 8.77183 3.38436C8.98433 3.08123 9.37808 2.67186 9.67183 2.44998C9.91558 2.26873 10.4187 2.02186 10.7343 1.93123C10.9531 1.86873 11.0531 1.85936 11.5468 1.85936C12.1625 1.86248 12.3687 1.89998 12.8437 2.09061C13.8968 2.51873 14.6843 3.52186 14.9562 4.78123C15.0375 5.15936 15.0406 6.15311 14.9593 6.53123C14.6625 7.91248 13.7281 9.15311 11.5093 11.1187C10.3562 12.1406 8.01558 14.125 7.98121 14.1125C7.93433 14.0937 5.22495 11.7719 4.48433 11.1125C2.25933 9.13748 1.34058 7.91248 1.04058 6.53123C0.95933 6.15311 0.962455 5.15936 1.0437 4.78123C1.35933 3.32811 2.32183 2.26561 3.62183 1.94061C3.9687 1.84998 3.99995 1.84998 4.54683 1.85936C4.94683 1.86561 5.0937 1.88123 5.2812 1.93436Z" fill="white"/>
</g>
<defs>
<clipPath id="clip0_223_6">
<rect width="16" height="16" fill="white"/>
</clipPath>
</defs>
</svg>
