<svg width="16" height="16" viewBox="0 0 16 16" fill="none" xmlns="http://www.w3.org/2000/svg">
<g clip-path="url(#clip0_223_9)">
<path d="M3.71871 0.921858C3.09058 1.03123 2.33121 1.35936 1.84058 1.73123C1.00933 2.35936 0.39058 3.33436 0.13433 4.40623C-0.00317027 4.99373 -0.0437953 5.88436 0.0437047 6.45311C0.27183 7.94061 1.15933 9.35311 2.88746 10.9781C3.52808 11.5812 3.97495 11.975 5.79371 13.5406C6.91246 14.5062 7.47496 14.9687 7.59371 15.025C7.83746 15.1437 8.16246 15.1437 8.40621 15.0281C8.64058 14.9125 11.9718 12.05 13.1 10.9906C14.8281 9.36873 15.7281 7.94061 15.9562 6.45311C16.0437 5.88436 16.0031 4.99373 15.8656 4.40623C15.6093 3.33436 14.9906 2.35936 14.1593 1.73123C13.6562 1.34998 12.9031 1.02811 12.25 0.921858C11.8968 0.862483 11.175 0.862483 10.825 0.921858C9.85621 1.09061 8.94683 1.62811 8.26246 2.44373C8.12808 2.60311 8.01246 2.73436 7.99996 2.73436C7.98746 2.73436 7.87183 2.60311 7.73746 2.44373C7.05308 1.62811 6.14371 1.09061 5.17496 0.921858C4.83746 0.865608 4.05621 0.865608 3.71871 0.921858Z" fill="white"/>
</g>
<defs>
<clipPath id="clip0_223_9">
<rect width="16" height="16" fill="white"/>
</clipPath>
</defs>
</svg>
