<svg width="20" height="20" viewBox="0 0 20 20" fill="none" xmlns="http://www.w3.org/2000/svg">
<g clip-path="url(#clip0_194_18)">
<path d="M5.84773 0.042942C4.17586 0.132786 2.90242 0.585911 1.97664 1.41013C0.738356 2.5156 0.195387 3.79685 0.0781997 5.89841C-0.027269 7.80075 7.47144e-05 13.6992 0.121168 14.7656C0.285231 16.2578 0.793043 17.4218 1.65242 18.289C2.34773 18.9883 3.01961 19.3828 4.00398 19.6679C5.05867 19.9726 5.83992 20.0117 10.6055 19.9883C14.4337 19.9726 14.7423 19.9609 15.5274 19.8008C17.8321 19.3359 19.3946 17.7617 19.8399 15.4609C19.9962 14.6562 20.004 14.2304 19.9923 9.62888L19.9766 5.21482L19.8868 4.72653C19.6524 3.44919 19.1915 2.50779 18.4259 1.72654C17.3438 0.621067 16.1368 0.156223 14.0626 0.0390358C13.2227 -0.0078392 6.71492 -0.00393295 5.84773 0.042942ZM14.4141 1.91404C15.5782 2.02732 16.3829 2.33591 16.9805 2.90232C17.4259 3.32029 17.711 3.78513 17.9063 4.41013C18.0548 4.87888 18.1212 5.31247 18.1641 6.11325C18.2149 7.02341 18.2149 13.0156 18.1641 13.9101C18.0743 15.5312 17.7774 16.332 17.0001 17.0781C16.3829 17.664 15.6719 17.9648 14.5899 18.0859C13.6212 18.1953 6.39851 18.1953 5.48836 18.0859C4.73054 17.9961 4.10554 17.8086 3.64851 17.5351C3.38679 17.3828 2.87117 16.9062 2.67976 16.6445C2.37117 16.2265 2.12898 15.5937 2.0157 14.9218C1.91023 14.289 1.87507 13.0234 1.87507 9.98044C1.87507 6.98825 1.91023 5.75778 2.01179 5.13669C2.18367 4.06638 2.58601 3.31247 3.26961 2.76169C3.62898 2.47263 3.8907 2.332 4.37507 2.17185C4.88679 2.00388 5.46101 1.91794 6.37507 1.87497C7.41414 1.8281 13.8634 1.85935 14.4141 1.91404Z" fill="black"/>
<path d="M15.0312 3.48828C14.4453 3.65625 14.0898 4.23828 14.1875 4.86719C14.2304 5.14062 14.3242 5.32812 14.5195 5.51953C14.7578 5.76172 14.9296 5.83203 15.3242 5.85156C15.6484 5.86719 15.6796 5.86328 15.9179 5.74609C16.1875 5.61328 16.3554 5.44141 16.4961 5.15625C16.6132 4.91016 16.6171 4.42969 16.5 4.17578C16.2421 3.62109 15.6132 3.32812 15.0312 3.48828Z" fill="black"/>
<path d="M9.35942 4.88672C8.57426 4.99219 7.79692 5.29297 7.10942 5.75391C6.74223 6 6.01567 6.72656 5.76957 7.09766C5.38286 7.68359 5.08989 8.39453 4.95707 9.08203C4.87504 9.49219 4.88676 10.5977 4.97661 11.0078C5.42582 13.0938 6.94145 14.6133 9.03129 15.0664C9.48442 15.1641 10.5938 15.1641 11.0469 15.0664C12.1016 14.8359 12.8985 14.4062 13.6563 13.6523C14.4258 12.8906 14.875 12.0586 15.1055 10.9766C15.2032 10.5156 15.2032 9.48438 15.1055 9.02344C14.6602 6.92578 13.1133 5.37109 11.0352 4.94141C10.6641 4.86328 9.73832 4.83203 9.35942 4.88672ZM10.8438 6.79688C12.0196 7.09766 12.9258 8.00391 13.2461 9.19922C13.3125 9.44141 13.3321 9.625 13.3321 10C13.3321 10.5625 13.25 10.9258 13.0274 11.3945C12.3164 12.8945 10.5977 13.6602 9.06254 13.1602C7.93754 12.7969 7.12114 11.918 6.80864 10.7422C6.71489 10.3906 6.71879 9.61328 6.81254 9.23828C7.21098 7.6875 8.62504 6.625 10.1797 6.70312C10.3789 6.71094 10.6758 6.75391 10.8438 6.79688Z" fill="black"/>
</g>
<defs>
<clipPath id="clip0_194_18">
<rect width="20" height="20" fill="white"/>
</clipPath>
</defs>
</svg>
