<svg width="20" height="20" viewBox="0 0 20 20" fill="none" xmlns="http://www.w3.org/2000/svg">
<g clip-path="url(#clip0_202_23)">
<mask id="mask0_202_23" style="mask-type:luminance" maskUnits="userSpaceOnUse" x="0" y="0" width="20" height="20">
<path d="M0 20L20 20L20 0L0 0L0 20Z" fill="white"/>
</mask>
<g mask="url(#mask0_202_23)">
<path d="M17.5195 19.9415C18.1211 19.8087 18.5781 19.5509 19.0469 19.086C19.4414 18.6915 19.6563 18.3516 19.8359 17.8321L19.9414 17.5196L19.9414 10.0001V2.48059L19.8359 2.16809C19.6563 1.65239 19.4414 1.30869 19.0469 0.914188C18.6523 0.519588 18.3086 0.304788 17.793 0.125088L17.4805 0.0195885L12.9102 0.0195885H8.3398L8.0273 0.125088C7.5117 0.304788 7.168 0.519588 6.7734 0.914188C6.375 1.31259 6.1602 1.65629 5.9883 2.16809C5.8828 2.47669 5.8828 2.50009 5.8672 3.68369C5.8555 4.85559 5.8555 4.89069 5.9375 5.06259C5.9922 5.17199 6.0859 5.28129 6.1836 5.34389C6.3203 5.43369 6.3828 5.44929 6.6406 5.44929C6.8984 5.44929 6.9609 5.43369 7.0977 5.34389C7.1914 5.28129 7.2891 5.17199 7.3398 5.07039C7.4141 4.91029 7.4219 4.83209 7.4219 4.05869C7.4219 3.59779 7.4414 3.10169 7.4609 2.94929C7.5625 2.23839 8.0977 1.70319 8.8086 1.60169C9.1758 1.55089 16.6445 1.55089 17.0117 1.60169C17.7227 1.70319 18.2578 2.23839 18.3594 2.94929C18.4102 3.32429 18.4102 16.6759 18.3594 17.0509C18.2578 17.7618 17.7227 18.297 17.0117 18.3985C16.6445 18.4493 9.1758 18.4493 8.8086 18.3985C8.0977 18.297 7.5625 17.7618 7.4609 17.0509C7.4414 16.9024 7.4219 16.4024 7.4219 15.9415C7.4219 15.1681 7.4141 15.0899 7.3398 14.9298C7.2891 14.8282 7.1914 14.7188 7.0977 14.6563C6.9609 14.5665 6.8984 14.5509 6.6406 14.5509C6.3828 14.5509 6.3203 14.5665 6.1836 14.6563C6.0859 14.7188 5.9922 14.8282 5.9375 14.9376C5.8555 15.1095 5.8555 15.1446 5.8672 16.3165C5.8828 17.5001 5.8828 17.5235 5.9883 17.8321C6.1602 18.3438 6.375 18.6876 6.7734 19.086C7.168 19.4806 7.5117 19.6954 8.0273 19.8751L8.3398 19.9806L12.8125 19.9884C16.4102 19.9923 17.332 19.9845 17.5195 19.9415Z" fill="white"/>
<path d="M9.12109 6.66462C8.73829 6.86384 8.57419 7.29743 8.73049 7.68415C8.76949 7.77399 9.04299 8.07868 9.46489 8.50056L10.1367 9.17634L5.35549 9.17634H0.570312L0.398441 9.25837C0.296881 9.30915 0.187501 9.40681 0.125001 9.50056C0.0351614 9.63728 0.0195312 9.69978 0.0195312 9.95755C0.0195312 10.2155 0.0351614 10.278 0.125001 10.4147C0.187501 10.5084 0.296881 10.6061 0.398441 10.6569L0.570312 10.7389H5.35549L10.1367 10.7389L9.46489 11.4108C9.04299 11.8365 8.76949 12.1412 8.73049 12.2311C8.61719 12.5084 8.67969 12.8639 8.87889 13.0748C9.10159 13.317 9.54299 13.3912 9.83589 13.2428C9.91409 13.1998 10.4375 12.7037 11 12.1373C11.8985 11.2311 12.0352 11.0787 12.1524 10.8365L12.2852 10.5631V9.95755V9.35212L12.1524 9.07868C12.0352 8.83649 11.8985 8.68415 11 7.7779C10.4375 7.21149 9.91409 6.7154 9.83589 6.67243C9.65629 6.57868 9.28909 6.57478 9.12109 6.66462Z" fill="white"/>
</g>
</g>
<defs>
<clipPath id="clip0_202_23">
<rect width="20" height="20" fill="white" transform="matrix(-1 0 0 -1 20 20)"/>
</clipPath>
</defs>
</svg>
