<svg width="20" height="20" viewBox="0 0 20 20" fill="none" xmlns="http://www.w3.org/2000/svg">
<path d="M10.5664 1.68356C11 1.74215 11.3906 1.86324 11.8555 2.08981C12.9648 2.63277 13.7227 3.56637 14.0703 4.8359C14.1406 5.08981 14.1562 5.24606 14.1562 5.82027C14.1562 6.43746 14.1445 6.53903 14.0508 6.89449C13.6289 8.45699 12.4023 9.61324 10.8125 9.93746C10.1914 10.0664 9.27734 10.0078 8.65234 9.79684C7.34375 9.36324 6.31641 8.25778 5.94922 6.89449C5.85547 6.53903 5.84375 6.43746 5.84375 5.82027C5.84375 5.08199 5.88672 4.85543 6.11719 4.26949C6.80859 2.51168 8.65234 1.44137 10.5664 1.68356Z" fill="white"/>
<path d="M10.7227 10.8437C10.7852 10.8515 10.9961 10.8789 11.1914 10.9023C11.6289 10.957 12.3321 11.1289 12.793 11.289C15.5117 12.2539 17.3906 14.5937 17.4883 17.1484C17.5117 17.7773 17.4805 17.9023 17.2383 18.1328C16.9883 18.375 17.4375 18.3594 10.0078 18.3594C5.043 18.3594 3.19143 18.3476 3.08206 18.3164C2.88284 18.2539 2.6719 18.0742 2.57034 17.8789C2.49612 17.7304 2.49221 17.6758 2.51175 17.1484C2.61721 14.3476 4.83596 11.8594 7.92581 11.0742C8.59378 10.9062 9.00784 10.8554 9.82424 10.8398C10.2539 10.832 10.6563 10.832 10.7227 10.8437Z" fill="white"/>
</svg>
