<svg width="20" height="20" viewBox="0 0 20 20" fill="none" xmlns="http://www.w3.org/2000/svg">
<g clip-path="url(#clip0_194_12)">
<path d="M8.71094 0.0624924C4.71876 0.574211 1.40235 3.46484 0.332037 7.36327C0.101568 8.21093 0.0312557 8.70702 0.0117245 9.71874C-0.011713 10.7148 0.0234432 11.207 0.179693 11.9766C0.695318 14.5859 2.26563 16.9062 4.51172 18.3828C5.80469 19.2305 7.22266 19.75 8.78907 19.9453C9.38282 20.0195 10.6328 20.0156 11.25 19.9414C14.1719 19.5781 16.7813 17.9414 18.4102 15.4492C19.2305 14.1953 19.7539 12.7539 19.9414 11.25C20.0195 10.6172 20.0195 9.3828 19.9414 8.74999C19.582 5.84374 17.9531 3.23827 15.4883 1.61718C14.2031 0.77343 12.7734 0.249992 11.25 0.0585861C10.6523 -0.0156326 9.29297 -0.0117264 8.71094 0.0624924ZM14.7617 6.17187C14.8945 6.30859 14.9414 6.49218 14.9063 6.73046C14.8242 7.23437 13.2305 14.6523 13.1758 14.7773C13.0938 14.9648 12.918 15.1172 12.7813 15.1172C12.5859 15.1133 12.3633 14.9726 11.1602 14.0859C10.4961 13.5976 9.92969 13.1875 9.89844 13.1758C9.86329 13.1641 9.59766 13.3945 9.17579 13.793C8.47266 14.4687 8.45704 14.4805 8.28126 14.5312C8.17579 14.5625 8.17188 14.5586 8.18751 14.418C8.19532 14.3398 8.23047 13.8633 8.26172 13.3594C8.29297 12.8555 8.33204 12.3516 8.34376 12.2383L8.36329 12.0351L10.707 9.92187C12.1992 8.5703 13.0469 7.78124 13.0469 7.73437C13.0469 7.6328 12.9219 7.60155 12.7656 7.66796C12.6953 7.69921 11.3516 8.53515 9.78126 9.52343L6.92579 11.3203L5.9336 11.0117C5.38672 10.8398 4.79688 10.6562 4.62501 10.6016C4.10547 10.4453 3.97266 10.2383 4.23438 10.0078C4.31251 9.9414 4.59376 9.80468 4.92579 9.67577C5.23438 9.55468 7.46485 8.6914 9.88282 7.7578C13.3164 6.43359 14.3164 6.05859 14.4609 6.05859C14.6133 6.05468 14.6602 6.07421 14.7617 6.17187Z" fill="black"/>
</g>
<defs>
<clipPath id="clip0_194_12">
<rect width="20" height="20" fill="white"/>
</clipPath>
</defs>
</svg>
