<svg width="20" height="20" viewBox="0 0 20 20" fill="none" xmlns="http://www.w3.org/2000/svg">
<g clip-path="url(#clip0_194_15)">
<path d="M0.2188 0.046875C0.234425 0.0703125 1.94927 2.57031 4.0313 5.59766C6.10943 8.625 7.81255 11.1094 7.81255 11.1172C7.81255 11.125 0.785206 19.3086 0.242237 19.9297C0.18755 19.9961 0.230518 20 1.07817 20H1.97661L5.29693 16.1367L8.62114 12.2773L11.2735 16.1367L13.9258 20H16.8672C19.211 20 19.8047 19.9883 19.7774 19.9492C19.7618 19.9258 17.9961 17.3477 15.8516 14.2266C13.7032 11.1055 11.9415 8.53125 11.9297 8.50391C11.9141 8.45703 12.8633 7.34375 17.879 1.51172L19.1836 0H18.2852H17.3868L14.2501 3.64844C12.5235 5.65234 11.1016 7.28906 11.0899 7.28125C11.0782 7.27734 9.94536 5.63281 8.57036 3.63672L6.07427 0H3.13286C0.863331 0 0.199268 0.0117188 0.2188 0.046875ZM11.1524 9.83203C14.418 14.5078 17.1563 18.4258 17.2383 18.543L17.3868 18.75H16.086L14.7852 18.7461L8.84771 10.25C5.58208 5.57422 2.8438 1.65625 2.76177 1.53906L2.60942 1.32812H3.91411L5.21489 1.33203L11.1524 9.83203Z" fill="black"/>
</g>
<defs>
<clipPath id="clip0_194_15">
<rect width="20" height="20" fill="white"/>
</clipPath>
</defs>
</svg>
